<mxfile host="app.diagrams.net" modified="2023-04-07T21:52:27.451Z" agent="Mozilla/5.0 (Windows NT 10.0; Win64; x64) AppleWebKit/537.36 (KHTML, like Gecko) Chrome/111.0.0.0 Safari/537.36" etag="LezUwL-XOtNjlzdoEQx8" version="21.1.5" type="device">
  <diagram name="Page-1" id="gKWAYd8CewTacDeHVTC6">
    <mxGraphModel dx="1720" dy="764" grid="1" gridSize="10" guides="1" tooltips="1" connect="1" arrows="1" fold="1" page="1" pageScale="1" pageWidth="850" pageHeight="1100" math="0" shadow="0">
      <root>
        <mxCell id="0" />
        <mxCell id="1" parent="0" />
        <mxCell id="pv1wV18iPfazpy_eSnLn-1" value="User" style="shape=umlActor;verticalLabelPosition=bottom;verticalAlign=top;html=1;outlineConnect=0;" parent="1" vertex="1">
          <mxGeometry x="100" y="610" width="30" height="70" as="geometry" />
        </mxCell>
        <mxCell id="pv1wV18iPfazpy_eSnLn-3" value="Login/Register" style="ellipse;whiteSpace=wrap;html=1;" parent="1" vertex="1">
          <mxGeometry x="350" y="730" width="120" height="50" as="geometry" />
        </mxCell>
        <mxCell id="pv1wV18iPfazpy_eSnLn-4" value="" style="endArrow=classic;html=1;rounded=0;" parent="1" target="pv1wV18iPfazpy_eSnLn-3" edge="1">
          <mxGeometry width="50" height="50" relative="1" as="geometry">
            <mxPoint x="130" y="640" as="sourcePoint" />
            <mxPoint x="450" y="810" as="targetPoint" />
          </mxGeometry>
        </mxCell>
        <mxCell id="pv1wV18iPfazpy_eSnLn-6" value="Create new users" style="ellipse;whiteSpace=wrap;html=1;" parent="1" vertex="1">
          <mxGeometry x="365" y="510" width="120" height="40" as="geometry" />
        </mxCell>
        <mxCell id="pv1wV18iPfazpy_eSnLn-7" value="Edit users" style="ellipse;whiteSpace=wrap;html=1;" parent="1" vertex="1">
          <mxGeometry x="380" y="440" width="120" height="40" as="geometry" />
        </mxCell>
        <mxCell id="pv1wV18iPfazpy_eSnLn-8" value="Delete&amp;nbsp; users" style="ellipse;whiteSpace=wrap;html=1;" parent="1" vertex="1">
          <mxGeometry x="365" y="590" width="120" height="40" as="geometry" />
        </mxCell>
        <mxCell id="pv1wV18iPfazpy_eSnLn-9" value="View users" style="ellipse;whiteSpace=wrap;html=1;" parent="1" vertex="1">
          <mxGeometry x="350" y="670" width="120" height="40" as="geometry" />
        </mxCell>
        <mxCell id="pv1wV18iPfazpy_eSnLn-12" value="Create Raport" style="ellipse;whiteSpace=wrap;html=1;" parent="1" vertex="1">
          <mxGeometry x="360" y="330" width="120" height="40" as="geometry" />
        </mxCell>
        <mxCell id="pv1wV18iPfazpy_eSnLn-13" value="Raport TXT" style="ellipse;whiteSpace=wrap;html=1;" parent="1" vertex="1">
          <mxGeometry x="640" y="280" width="120" height="40" as="geometry" />
        </mxCell>
        <mxCell id="pv1wV18iPfazpy_eSnLn-14" value="Raport JSON" style="ellipse;whiteSpace=wrap;html=1;" parent="1" vertex="1">
          <mxGeometry x="640" y="410" width="120" height="40" as="geometry" />
        </mxCell>
        <mxCell id="pv1wV18iPfazpy_eSnLn-16" value="View Chart" style="ellipse;whiteSpace=wrap;html=1;" parent="1" vertex="1">
          <mxGeometry x="350" y="800" width="120" height="40" as="geometry" />
        </mxCell>
        <mxCell id="pv1wV18iPfazpy_eSnLn-17" value="" style="endArrow=classic;html=1;rounded=0;entryX=0;entryY=0.5;entryDx=0;entryDy=0;" parent="1" target="pv1wV18iPfazpy_eSnLn-6" edge="1">
          <mxGeometry width="50" height="50" relative="1" as="geometry">
            <mxPoint x="130" y="640" as="sourcePoint" />
            <mxPoint x="450" y="770" as="targetPoint" />
          </mxGeometry>
        </mxCell>
        <mxCell id="pv1wV18iPfazpy_eSnLn-18" value="" style="endArrow=classic;html=1;rounded=0;entryX=0;entryY=0.5;entryDx=0;entryDy=0;" parent="1" target="pv1wV18iPfazpy_eSnLn-7" edge="1">
          <mxGeometry width="50" height="50" relative="1" as="geometry">
            <mxPoint x="130" y="640" as="sourcePoint" />
            <mxPoint x="350" y="540" as="targetPoint" />
          </mxGeometry>
        </mxCell>
        <mxCell id="pv1wV18iPfazpy_eSnLn-19" value="" style="endArrow=classic;html=1;rounded=0;entryX=0;entryY=0.5;entryDx=0;entryDy=0;" parent="1" target="pv1wV18iPfazpy_eSnLn-8" edge="1">
          <mxGeometry width="50" height="50" relative="1" as="geometry">
            <mxPoint x="140" y="640" as="sourcePoint" />
            <mxPoint x="360" y="550" as="targetPoint" />
          </mxGeometry>
        </mxCell>
        <mxCell id="pv1wV18iPfazpy_eSnLn-20" value="" style="endArrow=classic;html=1;rounded=0;" parent="1" target="pv1wV18iPfazpy_eSnLn-9" edge="1">
          <mxGeometry width="50" height="50" relative="1" as="geometry">
            <mxPoint x="130" y="640" as="sourcePoint" />
            <mxPoint x="370" y="560" as="targetPoint" />
          </mxGeometry>
        </mxCell>
        <mxCell id="pv1wV18iPfazpy_eSnLn-21" value="Home Page" style="ellipse;whiteSpace=wrap;html=1;" parent="1" vertex="1">
          <mxGeometry x="360" y="270" width="120" height="40" as="geometry" />
        </mxCell>
        <mxCell id="pv1wV18iPfazpy_eSnLn-23" value="" style="endArrow=classic;html=1;rounded=0;entryX=0.027;entryY=0.265;entryDx=0;entryDy=0;entryPerimeter=0;" parent="1" target="pv1wV18iPfazpy_eSnLn-21" edge="1">
          <mxGeometry width="50" height="50" relative="1" as="geometry">
            <mxPoint x="130" y="640" as="sourcePoint" />
            <mxPoint x="370.2977685874007" y="301.99007438041986" as="targetPoint" />
          </mxGeometry>
        </mxCell>
        <mxCell id="pv1wV18iPfazpy_eSnLn-25" value="" style="endArrow=classic;html=1;rounded=0;" parent="1" target="pv1wV18iPfazpy_eSnLn-12" edge="1">
          <mxGeometry width="50" height="50" relative="1" as="geometry">
            <mxPoint x="130" y="640" as="sourcePoint" />
            <mxPoint x="370.31849237040456" y="302.05798302171024" as="targetPoint" />
          </mxGeometry>
        </mxCell>
        <mxCell id="pv1wV18iPfazpy_eSnLn-27" value="" style="endArrow=classic;html=1;rounded=0;entryX=0;entryY=0.5;entryDx=0;entryDy=0;" parent="1" target="pv1wV18iPfazpy_eSnLn-16" edge="1">
          <mxGeometry width="50" height="50" relative="1" as="geometry">
            <mxPoint x="130" y="640" as="sourcePoint" />
            <mxPoint x="384.3599999999999" y="397" as="targetPoint" />
          </mxGeometry>
        </mxCell>
        <mxCell id="pv1wV18iPfazpy_eSnLn-31" value="Extends" style="endArrow=block;endSize=16;endFill=0;html=1;rounded=0;" parent="1" source="pv1wV18iPfazpy_eSnLn-13" edge="1">
          <mxGeometry x="-0.2904" y="31" width="160" relative="1" as="geometry">
            <mxPoint x="320" y="359.5" as="sourcePoint" />
            <mxPoint x="480" y="359.5" as="targetPoint" />
            <Array as="points">
              <mxPoint x="570" y="300" />
              <mxPoint x="570" y="360" />
            </Array>
            <mxPoint as="offset" />
          </mxGeometry>
        </mxCell>
        <mxCell id="pv1wV18iPfazpy_eSnLn-32" value="" style="endArrow=none;html=1;edgeStyle=orthogonalEdgeStyle;rounded=0;entryX=0.053;entryY=0.745;entryDx=0;entryDy=0;entryPerimeter=0;" parent="1" target="pv1wV18iPfazpy_eSnLn-14" edge="1">
          <mxGeometry relative="1" as="geometry">
            <mxPoint x="570" y="360" as="sourcePoint" />
            <mxPoint x="500" y="450" as="targetPoint" />
            <Array as="points">
              <mxPoint x="570" y="434" />
              <mxPoint x="646" y="434" />
            </Array>
          </mxGeometry>
        </mxCell>
        <mxCell id="pv1wV18iPfazpy_eSnLn-44" value="Add info about sleep" style="ellipse;whiteSpace=wrap;html=1;" parent="1" vertex="1">
          <mxGeometry x="470" y="620" width="120" height="60" as="geometry" />
        </mxCell>
        <mxCell id="pv1wV18iPfazpy_eSnLn-46" value="" style="endArrow=classic;html=1;rounded=0;entryX=0;entryY=0.5;entryDx=0;entryDy=0;" parent="1" target="pv1wV18iPfazpy_eSnLn-44" edge="1">
          <mxGeometry width="50" height="50" relative="1" as="geometry">
            <mxPoint x="130" y="640" as="sourcePoint" />
            <mxPoint x="365.1600000000001" y="811.4000000000001" as="targetPoint" />
          </mxGeometry>
        </mxCell>
        <mxCell id="7UMFYjZWrnJRyesLRc87-3" value="Money Chart" style="ellipse;whiteSpace=wrap;html=1;" parent="1" vertex="1">
          <mxGeometry x="680" y="560" width="120" height="40" as="geometry" />
        </mxCell>
        <mxCell id="7UMFYjZWrnJRyesLRc87-4" value="Food Chart" style="ellipse;whiteSpace=wrap;html=1;" parent="1" vertex="1">
          <mxGeometry x="680" y="620" width="120" height="40" as="geometry" />
        </mxCell>
        <mxCell id="7UMFYjZWrnJRyesLRc87-5" value="Family Chart" style="ellipse;whiteSpace=wrap;html=1;" parent="1" vertex="1">
          <mxGeometry x="680" y="680" width="120" height="40" as="geometry" />
        </mxCell>
        <mxCell id="7UMFYjZWrnJRyesLRc87-6" value="Emotions Chart" style="ellipse;whiteSpace=wrap;html=1;" parent="1" vertex="1">
          <mxGeometry x="680" y="730" width="120" height="40" as="geometry" />
        </mxCell>
        <mxCell id="7UMFYjZWrnJRyesLRc87-7" value="Animals Chart" style="ellipse;whiteSpace=wrap;html=1;" parent="1" vertex="1">
          <mxGeometry x="680" y="490" width="120" height="40" as="geometry" />
        </mxCell>
        <mxCell id="7UMFYjZWrnJRyesLRc87-9" value="Extends" style="endArrow=block;endSize=16;endFill=0;html=1;rounded=0;exitX=0;exitY=0.5;exitDx=0;exitDy=0;entryX=1;entryY=0.5;entryDx=0;entryDy=0;" parent="1" source="7UMFYjZWrnJRyesLRc87-7" target="pv1wV18iPfazpy_eSnLn-44" edge="1">
          <mxGeometry x="-0.2904" y="31" width="160" relative="1" as="geometry">
            <mxPoint x="770" y="590" as="sourcePoint" />
            <mxPoint x="610" y="649.5" as="targetPoint" />
            <Array as="points">
              <mxPoint x="640" y="510" />
              <mxPoint x="640" y="650" />
            </Array>
            <mxPoint as="offset" />
          </mxGeometry>
        </mxCell>
        <mxCell id="7UMFYjZWrnJRyesLRc87-11" value="" style="endArrow=none;html=1;edgeStyle=orthogonalEdgeStyle;rounded=0;entryX=0;entryY=0.5;entryDx=0;entryDy=0;" parent="1" target="7UMFYjZWrnJRyesLRc87-6" edge="1">
          <mxGeometry relative="1" as="geometry">
            <mxPoint x="640" y="579.5" as="sourcePoint" />
            <mxPoint x="800" y="579.5" as="targetPoint" />
            <Array as="points">
              <mxPoint x="640" y="750" />
            </Array>
          </mxGeometry>
        </mxCell>
        <mxCell id="7UMFYjZWrnJRyesLRc87-14" value="" style="endArrow=none;html=1;edgeStyle=orthogonalEdgeStyle;rounded=0;" parent="1" edge="1">
          <mxGeometry relative="1" as="geometry">
            <mxPoint x="640" y="579.5" as="sourcePoint" />
            <mxPoint x="680" y="590" as="targetPoint" />
            <Array as="points">
              <mxPoint x="640" y="590" />
            </Array>
          </mxGeometry>
        </mxCell>
        <mxCell id="7UMFYjZWrnJRyesLRc87-20" value="" style="endArrow=none;html=1;edgeStyle=orthogonalEdgeStyle;rounded=0;" parent="1" edge="1">
          <mxGeometry relative="1" as="geometry">
            <mxPoint x="640" y="699.5" as="sourcePoint" />
            <mxPoint x="660" y="700" as="targetPoint" />
            <Array as="points">
              <mxPoint x="720" y="699.5" />
              <mxPoint x="720" y="699.5" />
            </Array>
          </mxGeometry>
        </mxCell>
        <mxCell id="7UMFYjZWrnJRyesLRc87-26" value="" style="endArrow=none;html=1;edgeStyle=orthogonalEdgeStyle;rounded=0;entryX=0.08;entryY=0.755;entryDx=0;entryDy=0;entryPerimeter=0;" parent="1" target="7UMFYjZWrnJRyesLRc87-4" edge="1">
          <mxGeometry relative="1" as="geometry">
            <mxPoint x="640" y="660" as="sourcePoint" />
            <mxPoint x="610" y="820" as="targetPoint" />
            <Array as="points">
              <mxPoint x="640" y="650" />
            </Array>
          </mxGeometry>
        </mxCell>
        <mxCell id="tAl3aR92XY6BsrlOZg8g-1" value="Extends" style="endArrow=block;endSize=16;endFill=0;html=1;rounded=0;entryX=0.5;entryY=1;entryDx=0;entryDy=0;" edge="1" parent="1" target="pv1wV18iPfazpy_eSnLn-44">
          <mxGeometry x="-0.4" width="160" relative="1" as="geometry">
            <mxPoint x="530" y="780" as="sourcePoint" />
            <mxPoint x="760" y="670" as="targetPoint" />
            <mxPoint as="offset" />
          </mxGeometry>
        </mxCell>
        <mxCell id="tAl3aR92XY6BsrlOZg8g-2" value="Typr of Chart" style="ellipse;whiteSpace=wrap;html=1;" vertex="1" parent="1">
          <mxGeometry x="490" y="780" width="120" height="60" as="geometry" />
        </mxCell>
        <mxCell id="tAl3aR92XY6BsrlOZg8g-4" value="Extends" style="endArrow=block;endSize=16;endFill=0;html=1;rounded=0;entryX=0.313;entryY=0.977;entryDx=0;entryDy=0;entryPerimeter=0;" edge="1" parent="1" target="tAl3aR92XY6BsrlOZg8g-2">
          <mxGeometry x="0.6988" y="74" width="160" relative="1" as="geometry">
            <mxPoint x="650" y="950" as="sourcePoint" />
            <mxPoint x="760" y="670" as="targetPoint" />
            <Array as="points">
              <mxPoint x="530" y="950" />
              <mxPoint x="530" y="910" />
            </Array>
            <mxPoint as="offset" />
          </mxGeometry>
        </mxCell>
        <mxCell id="tAl3aR92XY6BsrlOZg8g-5" value="Saptamanal" style="ellipse;whiteSpace=wrap;html=1;" vertex="1" parent="1">
          <mxGeometry x="550" y="870" width="120" height="40" as="geometry" />
        </mxCell>
        <mxCell id="tAl3aR92XY6BsrlOZg8g-6" value="Lunar" style="ellipse;whiteSpace=wrap;html=1;" vertex="1" parent="1">
          <mxGeometry x="560" y="930" width="120" height="40" as="geometry" />
        </mxCell>
        <mxCell id="tAl3aR92XY6BsrlOZg8g-7" value="Zilnic" style="ellipse;whiteSpace=wrap;html=1;" vertex="1" parent="1">
          <mxGeometry x="560" y="1000" width="120" height="40" as="geometry" />
        </mxCell>
        <mxCell id="tAl3aR92XY6BsrlOZg8g-8" value="" style="endArrow=none;html=1;edgeStyle=orthogonalEdgeStyle;rounded=0;exitX=0;exitY=0.5;exitDx=0;exitDy=0;entryX=0;entryY=0.5;entryDx=0;entryDy=0;" edge="1" parent="1" source="tAl3aR92XY6BsrlOZg8g-5" target="tAl3aR92XY6BsrlOZg8g-7">
          <mxGeometry relative="1" as="geometry">
            <mxPoint x="590" y="870" as="sourcePoint" />
            <mxPoint x="610" y="1040" as="targetPoint" />
          </mxGeometry>
        </mxCell>
        <mxCell id="tAl3aR92XY6BsrlOZg8g-15" value="Extends" style="endArrow=block;endSize=16;endFill=0;html=1;rounded=0;entryX=1;entryY=0.5;entryDx=0;entryDy=0;" edge="1" parent="1" source="tAl3aR92XY6BsrlOZg8g-17" target="tAl3aR92XY6BsrlOZg8g-5">
          <mxGeometry x="-1" y="-67" width="160" relative="1" as="geometry">
            <mxPoint x="750" y="890" as="sourcePoint" />
            <mxPoint x="830" y="940" as="targetPoint" />
            <mxPoint x="30" y="7" as="offset" />
          </mxGeometry>
        </mxCell>
        <mxCell id="tAl3aR92XY6BsrlOZg8g-16" value="Chart Rosu" style="ellipse;whiteSpace=wrap;html=1;" vertex="1" parent="1">
          <mxGeometry x="720" y="820" width="120" height="40" as="geometry" />
        </mxCell>
        <mxCell id="tAl3aR92XY6BsrlOZg8g-18" value="Chart Verde" style="ellipse;whiteSpace=wrap;html=1;" vertex="1" parent="1">
          <mxGeometry x="720" y="930" width="120" height="40" as="geometry" />
        </mxCell>
        <mxCell id="tAl3aR92XY6BsrlOZg8g-19" value="" style="endArrow=none;html=1;edgeStyle=orthogonalEdgeStyle;rounded=0;entryX=0;entryY=0.5;entryDx=0;entryDy=0;exitX=0;exitY=0.5;exitDx=0;exitDy=0;" edge="1" parent="1" source="tAl3aR92XY6BsrlOZg8g-16" target="tAl3aR92XY6BsrlOZg8g-18">
          <mxGeometry relative="1" as="geometry">
            <mxPoint x="700" y="840" as="sourcePoint" />
            <mxPoint x="830" y="940" as="targetPoint" />
            <Array as="points">
              <mxPoint x="700" y="840" />
              <mxPoint x="700" y="950" />
            </Array>
          </mxGeometry>
        </mxCell>
        <mxCell id="tAl3aR92XY6BsrlOZg8g-22" value="" style="endArrow=block;endSize=16;endFill=0;html=1;rounded=0;entryX=1;entryY=0.5;entryDx=0;entryDy=0;" edge="1" parent="1" target="tAl3aR92XY6BsrlOZg8g-17">
          <mxGeometry x="-1" y="-67" width="160" relative="1" as="geometry">
            <mxPoint x="750" y="890" as="sourcePoint" />
            <mxPoint x="670" y="890" as="targetPoint" />
            <mxPoint x="30" y="7" as="offset" />
          </mxGeometry>
        </mxCell>
        <mxCell id="tAl3aR92XY6BsrlOZg8g-17" value="Chart Albastru" style="ellipse;whiteSpace=wrap;html=1;" vertex="1" parent="1">
          <mxGeometry x="710" y="870" width="120" height="40" as="geometry" />
        </mxCell>
      </root>
    </mxGraphModel>
  </diagram>
</mxfile>
